<svg version="1.1" xmlns="http://www.w3.org/2000/svg" xmlns:xlink="http://www.w3.org/1999/xlink" width="53.12456" height="47.66174" viewBox="0,0,53.12456,47.66174"><g transform="translate(-213.67857,-156.16913)"><g data-paper-data="{&quot;isPaintingLayer&quot;:true}" fill-rule="nonzero" stroke-linecap="butt" stroke-linejoin="miter" stroke-miterlimit="10" stroke-dasharray="" stroke-dashoffset="0" style="mix-blend-mode: normal"><g stroke="none" stroke-width="0.69834"><path d="M216.16911,200.43452c-0.59555,0 -1.16184,-0.21915 -1.51386,-0.58638c-0.1877,-0.19556 -0.28664,-0.40947 -0.27878,-0.60291c0.1917,-1.57218 1.07819,-5.71759 1.69283,-6.0134c0.0214,-0.00437 0.06582,-0.0083 0.12115,-0.0083c0.30448,0 0.9253,0.12246 1.64361,0.26443c1.09211,0.21652 2.44783,0.48488 3.46196,0.48488c0.31976,0 0.58981,-0.02744 0.80197,-0.0819c1.44586,-0.36986 3.78784,-2.17816 4.24215,-2.5371c0.40778,-0.29538 0.76192,-0.44265 1.07295,-0.44265c0.75544,0 0.94881,0.89916 0.95056,0.90876v0.00044c-0.07011,0.12108 -1.57568,2.67259 -4.34146,3.19359c-0.66916,0.12632 -1.46065,0.19082 -2.35282,0.19082c-1.50644,0 -2.9523,-0.18209 -3.67979,-0.29057l-0.64602,-0.09632l0.15945,0.63342c0.51053,2.02963 0.70091,4.34714 -0.29494,4.76534c-0.34285,0.1451 -0.69268,0.21784 -1.03896,0.21784v0v0z" fill="#d4fc6a"/><path d="M227.41353,191.34773c-0.20997,0 -0.48395,0.12064 -0.81457,0.35763c-0.49275,0.38814 -2.87389,2.21952 -4.39249,2.60815c-0.25134,0.06444 -0.54889,0.09538 -0.91002,0.09538c-1.05686,0 -2.43604,-0.27317 -3.54386,-0.49268c-0.61769,-0.12202 -1.20146,-0.23742 -1.49421,-0.25483c-0.54322,0.74314 -1.25199,4.15545 -1.44499,5.61784c0.00611,0.05402 0.04448,0.15028 0.15639,0.26705c0.26749,0.27921 0.72711,0.4522 1.19933,0.4522c0.28839,0 0.58108,-0.06188 0.87165,-0.18296c0.4988,-0.20954 0.67353,-1.7395 0.04011,-4.257l-0.31889,-1.26727l1.2921,0.19257c0.71526,0.10673 2.13629,0.28576 3.61485,0.28576c0.8656,0 1.62971,-0.06182 2.27179,-0.18297c2.19861,-0.41384 3.57867,-2.27222 3.94678,-2.82679c-0.06837,-0.16643 -0.2134,-0.41209 -0.47397,-0.41209M227.41353,191.34773v0v-0.87127v0c0.88481,0 1.28817,0.82249 1.3775,1.25723l0.03356,0.16251l-0.08278,0.14285c-0.06712,0.11634 -1.67412,2.84601 -4.63859,3.40401c-0.69705,0.132 -1.51554,0.19824 -2.43342,0.19824c0,0 0,0 -0.00044,0c-1.50163,0 -2.93309,-0.17467 -3.74336,-0.29537c0.37896,1.50688 0.96098,4.63945 -0.54889,5.27331c-0.39643,0.166 -0.80247,0.25046 -1.20801,0.25046c-0.71183,0 -1.39534,-0.26918 -1.82795,-0.72007c-0.27049,-0.28184 -0.41253,-0.60946 -0.39943,-0.92224c0.00218,-0.0597 0.90914,-6.15063 2.01522,-6.4155c0.06662,-0.0161 0.14328,-0.02396 0.23392,-0.02396c0.34765,0 0.95836,0.12064 1.7312,0.27354c1.07164,0.21259 2.40553,0.47616 3.37437,0.47616c0.28358,0 0.51752,-0.02265 0.69437,-0.06794c1.45372,-0.3716 4.0575,-2.43909 4.08364,-2.45955c0.50048,-0.36287 0.93309,-0.53367 1.33907,-0.53367z" fill="#000000"/></g><path d="M237.90351,193.65439c0.18602,-0.50404 0.33105,-2.12282 0.33105,-2.12282l3.40319,-1.18012c0,0 -0.66698,4.09319 -3.13789,5.56862c-2.46998,1.47681 -5.10251,1.96382 -5.10251,1.96382c0,0 3.87492,3.21929 2.09625,4.89478c-1.7791,1.6763 -4.62161,-3.11131 -4.61768,-3.76912c0.00393,-0.6578 -0.18471,-1.85927 2.19169,-2.45956c2.37722,-0.59942 4.15545,-1.05249 4.8359,-2.8956v0z" fill="#ff1557" stroke="#000000" stroke-width="1.39668"/><path d="M250.55811,188.62374v0v0c0,0 2.43735,1.02068 3.736,3.47325c1.29815,2.45351 2.12108,5.27898 2.12108,5.27898c0,0 3.85919,0.45956 4.71001,1.56346c0.85032,1.10476 0.10194,3.5992 -1.42496,3.02242c-1.5269,-0.57677 -4.6573,-1.73557 -4.89297,-2.48008c-0.23655,-0.74445 -0.36636,-4.21558 -1.77212,-6.12668c-1.40756,-1.9098 -4.32668,-4.73135 -4.32668,-4.73135h1.84966z" fill="#59c9ee" stroke="#000000" stroke-width="1.39668"/><path d="M226.34582,168.64968c0,0 -2.68606,-2.14154 -4.24739,-2.54059c-1.56127,-0.39992 -5.44536,0.7981 -6.03997,0.65606c-0.59374,-0.14285 -1.65322,-5.32602 -1.68154,-6.0104c-0.02876,-0.68388 1.2969,-1.61573 2.83159,-0.97227c1.53426,0.64296 0.11847,5.41092 0.11847,5.41092c0,0 3.895,-0.73753 6.69522,-0.20997c2.80196,0.52843 4.3419,3.19403 4.3419,3.19403" fill="#35abbf" stroke="#000000" stroke-width="1.39668"/><path d="M237.90351,166.34651v0c-0.68045,-1.8436 -2.45869,-2.29618 -4.8359,-2.89647c-2.3764,-0.59985 -2.18776,-1.80138 -2.19169,-2.45962c-0.00393,-0.65818 2.83858,-5.44536 4.61768,-3.76906c1.77867,1.6763 -2.09625,4.89479 -2.09625,4.89479c0,0 2.63254,0.48745 5.10251,1.96294c2.47091,1.47631 3.13789,5.56949 3.13789,5.56949l-3.40319,-1.18013c0,0 -0.14503,-1.61835 -0.33105,-2.12195z" fill="#ffc300" stroke="#000000" stroke-width="1.39668"/><path d="M250.55811,171.37759h-1.84966c0,0 2.91912,-2.82067 4.32668,-4.73221c1.40576,-1.9111 1.53557,-5.38223 1.77212,-6.12669c0.23567,-0.74452 3.36607,-1.9033 4.89297,-2.48095c1.52733,-0.57677 2.27528,1.91853 1.42496,3.02286c-0.85082,1.10521 -4.71001,1.56389 -4.71001,1.56389c0,0 -0.82292,2.82636 -2.12108,5.27943c-1.29821,2.453 -3.736,3.47368 -3.736,3.47368v0v0z" fill="#80c34f" stroke="#000000" stroke-width="1.39668"/><path d="M255.97864,173.65943c0,0 1.2969,-3.33956 3.8771,-5.64535c1.65758,-1.48024 4.10622,-2.51402 4.45256,-2.60198c0.34546,-0.08758 -0.6399,-6.36585 -0.51402,-6.18376c1.9015,2.7414 2.2648,7.46101 2.2648,7.46101c0,0 -2.61376,0.50797 -5.732,2.86821c-3.11824,2.35931 -3.05286,5.02847 -3.05286,5.02847l-1.29559,-0.9266v0z" fill="#ff6d00" stroke="#000000" stroke-width="1.39668"/><path d="M255.97864,186.34147v0l1.29559,-0.9266c0,0 -0.06538,2.66822 3.05286,5.02847c3.11824,2.35937 5.732,2.86734 5.732,2.86734c0,0 -0.36331,4.71962 -2.2648,7.46188c-0.12588,0.18122 0.85949,-6.09574 0.51402,-6.18332c-0.34634,-0.08933 -2.79498,-1.12392 -4.45256,-2.60334c-2.5802,-2.30491 -3.8771,-5.64442 -3.8771,-5.64442z" fill="#ff6d00" stroke="#000000" stroke-width="1.39668"/><g stroke="none" stroke-width="0.69834"><path d="M245.277,184.14024v0c0.62512,1.92326 0.16419,3.61922 -0.12027,4.37721c-2.03437,0.45351 -4.1459,1.4498 -6.34926,2.06007c-10.08007,2.79803 -22.49594,-2.93091 -23.04308,-10.17321h25.66514c0.08053,0.00692 2.72916,0.2892 3.84747,3.73593z" fill="#8761d4"/><path d="M215.76788,179.34221v0c0.62687,-7.21922 13.07062,-13.08546 23.0409,-10.10222c2.25738,0.67521 4.38807,1.69545 6.41638,2.18071c0.28053,0.82948 0.62861,2.41121 0.05184,4.18558c-1.13614,3.49851 -3.85533,3.73593 -3.85533,3.73593h-25.6538z" fill="#8761d4"/><path d="M258.44999,179.90894v0c0,4.70614 -4.26218,8.36759 -11.31765,8.36759c-0.16556,0 -0.33237,0.00611 -0.50011,0.01784c0.20779,-0.7928 0.40772,-2.294 -0.16163,-4.37721c-0.63386,-2.32057 -2.14066,-3.4763 -3.3443,-4.04434c1.20364,-0.56811 2.71045,-1.7229 3.3443,-4.0431c0.55893,-2.04223 0.41689,-3.42752 0.24441,-4.16199c0.20299,0.01697 0.40642,0.02876 0.60859,0.02876c6.77226,0 11.12639,3.50724 11.12639,8.21245z" fill="#ff6d00"/><path d="M248.07853,170.65797v0c7.27237,0 11.94845,4.20074 11.94845,9.25359c0,5.05242 -4.57589,9.42139 -12.15187,9.42139c-2.82904,0 -5.80043,1.59964 -8.94044,2.47172c-11.07112,3.07339 -24.77384,-3.86705 -24.77384,-11.89311c0,-8.02599 13.789,-15.1799 24.77297,-11.89355c3.2755,0.98019 6.30048,2.63996 9.14473,2.63996zM246.63223,188.29437v0c0.16774,-0.01217 0.33411,-0.01784 0.50054,-0.01784c7.05503,0 11.31721,-3.66145 11.31721,-8.36759c0,-4.70521 -4.35413,-8.21245 -11.12639,-8.21245c-0.2013,0 -0.40473,-0.01179 -0.60859,-0.02876c0.17248,0.73448 0.31365,2.11977 -0.24441,4.16199c-0.63386,2.31976 -2.14066,3.47499 -3.3443,4.0431c1.20364,0.56848 2.71045,1.72377 3.3443,4.04434c0.56935,2.08321 0.36942,3.58441 0.16163,4.37721zM238.80791,169.23999v0c-9.96941,-2.98325 -22.41316,2.88299 -23.04003,10.10222h25.65292c0,0 2.72006,-0.23742 3.85576,-3.73593c0.57634,-1.77436 0.22913,-3.3561 -0.05183,-4.18557c-2.02875,-0.48483 -4.15857,-1.5055 -6.41682,-2.18071zM238.80747,190.57752v0c2.20336,-0.61071 4.31489,-1.607 6.35013,-2.06138c0.28358,-0.75668 0.74539,-2.45388 0.1194,-4.3759c-1.1183,-3.44673 -3.76693,-3.72813 -3.84747,-3.73593h-25.66514c0.54715,7.2423 12.96257,12.97125 23.04308,10.17321z" fill="#231f20"/></g><g stroke="none" stroke-width="0.69834"><g><path d="M253.78308,179.15706c-0.08147,0 -0.16206,-0.00568 -0.24223,-0.01785c-0.47659,-0.07105 -0.92436,-0.36112 -1.22934,-0.79591c-0.31147,-0.44391 -0.43997,-0.97839 -0.36068,-1.5055c0.14591,-0.98281 1.00414,-1.7534 1.95333,-1.7534c0.08103,0 0.16075,0.00605 0.24048,0.01784c0.47702,0.07143 0.9253,0.362 1.22978,0.79717c0.31016,0.44396 0.43741,0.97801 0.35813,1.50469c-0.14597,0.98281 -1.00284,1.75297 -1.94947,1.75297v0v0z" fill="#ffffff"/><path d="M253.90416,175.52c-0.68738,0 -1.4027,0.5759 -1.52253,1.38224c-0.13112,0.87695 0.4875,1.69633 1.22416,1.80612c0.05883,0.00874 0.11715,0.0131 0.17729,0.0131c0.68875,0 1.39839,-0.57547 1.51904,-1.3823c0.13069,-0.87601 -0.48439,-1.69589 -1.22192,-1.80612c-0.05795,-0.00867 -0.11678,-0.01304 -0.17604,-0.01304M253.90416,175.52v0v-0.87127v0c0.10324,0 0.20524,0.00786 0.30454,0.02221c0.59462,0.08846 1.14962,0.44521 1.5221,0.97801c0.37416,0.53585 0.52836,1.18143 0.43211,1.81878c-0.17772,1.19142 -1.22454,2.1245 -2.38071,2.1245c-0.1028,0 -0.20604,-0.00735 -0.30579,-0.02264c-0.59337,-0.08839 -1.14874,-0.44434 -1.52166,-0.97664c-0.37597,-0.53585 -0.53105,-1.18231 -0.43567,-1.81834c0.17735,-1.19185 1.22504,-2.12588 2.38508,-2.12588z" fill="#000000"/></g><path d="M254.72447,176.37119c0.21085,0 0.40167,0.09107 0.54016,0.23829c0.13811,0.14685 0.22395,0.34983 0.22395,0.57415c0,0.22439 -0.08584,0.42737 -0.22395,0.57422c-0.13849,0.14722 -0.32931,0.23823 -0.54016,0.23823c-0.21085,0 -0.40167,-0.09101 -0.54015,-0.23823c-0.13811,-0.14685 -0.22395,-0.34983 -0.22395,-0.57422c0,-0.22432 0.08584,-0.42731 0.22395,-0.57415c0.13849,-0.14722 0.32931,-0.23829 0.54015,-0.23829z" fill="#000000"/></g><g stroke="none" stroke-width="0.69834"><g><path d="M253.81708,185.07464c-0.08147,0 -0.16206,-0.00611 -0.24222,-0.01784c-0.47659,-0.07143 -0.92486,-0.36156 -1.22934,-0.79635c-0.31147,-0.44434 -0.43997,-0.97839 -0.36068,-1.50507c0.14591,-0.98281 1.00408,-1.75341 1.95333,-1.75341c0.08104,0 0.16075,0.00648 0.24048,0.01784c0.47702,0.07143 0.9253,0.36156 1.22978,0.79723c0.30972,0.44391 0.43735,0.97751 0.35807,1.50419c-0.14591,0.98325 -1.00278,1.7534 -1.94941,1.7534v0v0z" fill="#ffffff"/><path d="M253.93816,181.43715c-0.68744,0 -1.40269,0.57634 -1.52296,1.38268c-0.13069,0.87608 0.48794,1.69552 1.22454,1.80612c0.05882,0.0083 0.11721,0.01266 0.17735,0.01266c0.68869,0 1.39834,-0.57502 1.51904,-1.38267c0.13069,-0.87608 -0.48445,-1.69552 -1.22198,-1.80612c-0.05789,-0.0083 -0.11672,-0.01266 -0.17598,-0.01266M253.93816,181.43715v0v-0.87127v0c0.10324,0 0.20518,0.00786 0.30448,0.02308c0.59424,0.08846 1.14968,0.44478 1.5221,0.97757c0.37422,0.53629 0.52843,1.18187 0.43218,1.81922c-0.17773,1.19098 -1.22454,2.12457 -2.3807,2.12457c-0.1028,0 -0.20605,-0.00786 -0.30586,-0.02314c-0.5933,-0.08839 -1.14918,-0.4439 -1.52203,-0.97664c-0.37554,-0.53629 -0.53061,-1.18187 -0.43523,-1.81834c0.17729,-1.19185 1.22453,-2.12632 2.38507,-2.12632z" fill="#000000"/></g><path d="M254.75847,182.2884c0.21085,0 0.40161,0.09101 0.54016,0.23823c0.13811,0.14685 0.22394,0.34983 0.22394,0.57422c0,0.22432 -0.08583,0.42731 -0.22394,0.57415c-0.13855,0.14722 -0.32931,0.2383 -0.54016,0.2383c-0.21085,0 -0.40167,-0.09108 -0.54022,-0.2383c-0.13805,-0.14685 -0.22388,-0.34983 -0.22388,-0.57415c0,-0.22439 0.08584,-0.42737 0.22388,-0.57422c0.13855,-0.14722 0.32936,-0.23823 0.54022,-0.23823z" fill="#000000"/></g></g></g></svg>