<svg version="1.1" xmlns="http://www.w3.org/2000/svg" xmlns:xlink="http://www.w3.org/1999/xlink" width="512.16976" height="365.32931" viewBox="0,0,512.16976,365.32931"><g transform="translate(16.08488,2.66466)"><g data-paper-data="{&quot;isPaintingLayer&quot;:true}" fill-rule="nonzero" stroke="#000000" stroke-width="2.5" stroke-linecap="butt" stroke-linejoin="miter" stroke-miterlimit="10" stroke-dasharray="" stroke-dashoffset="0" style="mix-blend-mode: normal"><path d="M-13.2036,57.34231v-58.75696h54.11825v58.75696z" fill="#c3c3c3"/><path d="M42.97115,57.85256v-58.75695h54.11824v58.75696z" fill="#000000"/><path d="M99.55874,58.3721v-58.75696h54.11824v58.75696z" fill="#c3c3c3"/><path d="M156.71225,58.887v-58.75695h54.11825v58.75696z" fill="#000000"/><path d="M212.83596,59.40189v-58.75696h54.11825v58.75696z" fill="#c3c3c3"/><path d="M270.26779,57.85256v-58.75695h54.11825v58.75696z" fill="#000000"/><path d="M326.44254,58.36282v-58.75695h54.11825v58.75696z" fill="#c3c3c3"/><path d="M383.03013,58.88236v-58.75695h54.11825v58.75696z" fill="#000000"/><path d="M440.18364,59.39725v-58.75695h54.11825v58.75696z" fill="#c3c3c3"/><path d="M-11.1691,116.0199v-58.75696h54.11825v58.75696z" fill="#000000"/><path d="M43.50414,116.53016v-58.75695h54.11825v58.75696z" fill="#c3c3c3"/><path d="M100.09173,117.0497v-58.75695h54.11825v58.75696z" fill="#000000"/><path d="M157.24524,117.56459v-58.75695h54.11825v58.75696z" fill="#c3c3c3"/><path d="M213.36896,119.58099v-58.75695h54.11824v58.75696z" fill="#000000"/><path d="M270.80079,116.53016v-58.75695h54.11825v58.75696z" fill="#c3c3c3"/><path d="M326.97553,117.04042v-58.75695h54.11825v58.75696z" fill="#000000"/><path d="M383.56312,117.55995v-58.75695h54.11826v58.75696z" fill="#c3c3c3"/><path d="M440.71663,118.07485v-58.75695h54.11825v58.75696z" fill="#000000"/><path d="M-13.75274,177.92776v-58.75695h54.11825v58.75695z" fill="#c3c3c3"/><path d="M42.422,178.43801v-58.75695h54.11825v58.75695z" fill="#000000"/><path d="M99.00959,178.95755v-58.75696h54.11825v58.75696z" fill="#c3c3c3"/><path d="M156.1631,179.47245v-58.75695h54.11825v58.75695z" fill="#000000"/><path d="M212.28682,179.98734v-58.75695h54.11824v58.75695z" fill="#c3c3c3"/><path d="M269.71865,178.43801v-58.75695h54.11825v58.75695z" fill="#000000"/><path d="M325.8934,178.94827v-58.75696h54.11825v58.75696z" fill="#c3c3c3"/><path d="M382.48098,179.46781v-58.75696h54.11826v58.75696z" fill="#000000"/><path d="M439.63449,179.9827v-58.75695h54.11825v58.75695z" fill="#c3c3c3"/><path d="M-14.28573,238.76962v-58.75696h54.11825v58.75696z" fill="#000000"/><path d="M41.889,239.27988v-58.75696h54.11826v58.75696z" fill="#c3c3c3"/><path d="M98.4766,239.79942v-58.75696h54.11824v58.75696z" fill="#000000"/><path d="M155.63011,240.31432v-58.75696h54.11825v58.75696z" fill="#c3c3c3"/><path d="M213.25533,239.32771v-58.75696h54.11825v58.75696z" fill="#000000"/><path d="M269.18566,239.27988v-58.75696h54.11825v58.75696z" fill="#c3c3c3"/><path d="M325.3604,239.79014v-58.75696h54.11825v58.75696z" fill="#000000"/><path d="M381.94799,240.30967v-58.75696h54.11825v58.75696z" fill="#c3c3c3"/><path d="M439.1015,240.82457v-58.75696h54.11825v58.75696z" fill="#000000"/><path d="M-13.75274,297.44722v-58.75696h54.11825v58.75696z" fill="#c3c3c3"/><path d="M42.422,297.95748v-58.75695h54.11825v58.75695z" fill="#000000"/><path d="M99.00959,298.47701v-58.75696h54.11825v58.75696z" fill="#c3c3c3"/><path d="M156.1631,298.99191v-58.75696h54.11825v58.75696z" fill="#000000"/><path d="M212.28682,299.50681v-58.75695h54.11824v58.75695z" fill="#c3c3c3"/><path d="M269.71865,297.95748v-58.75695h54.11825v58.75695z" fill="#000000"/><path d="M325.8934,298.46774v-58.75696h54.11825v58.75696z" fill="#c3c3c3"/><path d="M382.48098,298.98727v-58.75696h54.11825v58.75696z" fill="#000000"/><path d="M439.63449,299.50217v-58.75696h54.11825v58.75696z" fill="#c3c3c3"/><path d="M-14.83488,359.35507v-58.75696h54.11825v58.75696z" fill="#000000"/><path d="M41.33987,359.86533v-58.75696h54.11825v58.75696z" fill="#c3c3c3"/><path d="M97.92746,360.38486v-58.75696h54.11825v58.75696z" fill="#000000"/><path d="M155.08097,360.89976v-58.75696h54.11825v58.75696z" fill="#c3c3c3"/><path d="M212.70619,361.41466v-58.75696h54.11825v58.75696z" fill="#000000"/><path d="M268.63651,359.86533v-58.75696h54.11825v58.75696z" fill="#c3c3c3"/><path d="M324.81126,360.37559v-58.75696h54.11825v58.75696z" fill="#000000"/><path d="M381.39885,360.89512v-58.75696h54.11826v58.75696z" fill="#c3c3c3"/><path d="M438.55236,361.41002v-58.75696h54.11826v58.75696z" fill="#000000"/></g></g></svg>